/* XPM */
static char *gram[] = {
/* columns rows colors chars-per-pixel */
"50 50 103 2 ",
"   c #035E1A",
".  c #03641C",
"X  c #09671C",
"o  c #026B1D",
"O  c #0B6A1C",
"+  c #07711F",
"@  c #11721E",
"#  c #027521",
"$  c #017D23",
"%  c #097B22",
"&  c #177F21",
"*  c #197E21",
"=  c #008626",
"-  c #0C8625",
";  c #018926",
":  c #028D28",
">  c #1E8523",
",  c #118A25",
"<  c #00962B",
"1  c #0D9429",
"2  c #019A2C",
"3  c #159127",
"4  c #1E9126",
"5  c #1D9728",
"6  c #169E2A",
"7  c #238D24",
"8  c #2E9C27",
"9  c #2F9E28",
"0  c #01A62F",
"q  c #0FA62E",
"w  c #16A12C",
"e  c #1FA82C",
"r  c #01AC31",
"t  c #01B433",
"y  c #0BB533",
"u  c #01BE36",
"i  c #21AA2D",
"p  c #3AAE2C",
"a  c #2CB52F",
"s  c #3BB12C",
"d  c #38BA2F",
"f  c #23BE32",
"g  c #2CBF32",
"h  c #42BC2E",
"j  c #01C036",
"k  c #00C638",
"l  c #00CC3A",
"z  c #00D63D",
"x  c #0BD33B",
"c  c #01D83E",
"v  c #0EDC3D",
"b  c #16DE3D",
"n  c #37C131",
"m  c #39C332",
"M  c #39CE35",
"N  c #37D136",
"B  c #23E33D",
"V  c #2CE63D",
"C  c #31E83D",
"Z  c #39EB3D",
"A  c #46C02F",
"S  c #43C431",
"D  c #49C430",
"F  c #43CE34",
"G  c #4CCB32",
"H  c #45D034",
"J  c #48D335",
"K  c #49D435",
"L  c #41DE38",
"P  c #52D233",
"I  c #51DD37",
"U  c #5BDF36",
"Y  c #44EF3D",
"T  c #5CE036",
"R  c #5DE136",
"E  c #5BE638",
"W  c #5BE738",
"Q  c #51EC3B",
"!  c #5BE838",
"~  c #5CE939",
"^  c #46F03D",
"/  c #4FF33D",
"(  c #50F33D",
")  c #52F43D",
"_  c #5CF73D",
"`  c #5CF93D",
"'  c #64EB39",
"]  c #64ED39",
"[  c #65ED39",
"{  c #64F33B",
"}  c #63F53C",
"|  c #69F33A",
" . c #68F53B",
".. c #6BF63B",
"X. c #6AF73C",
"o. c #63FA3D",
"O. c #65FD3E",
"+. c #6AF83C",
"@. c #6CFB3D",
"#. c #6AFC3D",
"$. c #6CFF3E",
"%. c #71FF3D",
"&. c #74FF3E",
/* pixels */
"%.%.X.6 = = = = = = = = m %.%.A     o = = = = = = .   . u z z z z z z z z z z z t = = = = = < z z z ",
"%.%.+.6 = = = = = = = = m %.%.A     o = = = = = = .   . u z z z z z z z z z z c t = = = = = < z z z ",
"#.#.} w ; : ; = = = = = m %.%.D X X + = = = = = = . . o u z z z z z z z z z l z t = = = = = < z z z ",
"b b b l k k 2 = = = = = m %.%.| U R S ; = = = = = = $ = k z z z z z z z z 0 # # + . . . . . $ l z z ",
"z z z z z z 2 = = = = = m %.%.%.%.&.I ; = = = = = = = : k z z z z z z z c 2                 # l z z ",
"z z z z z z 2 ; ; = = = m %.%.%.%.%.I : ; ; = = = = = : k z z z z z z z z 2                 # l z z ",
"z z z z z z k u j ; o o s %.%.%.%.%. .I I F : = = = = : k z z z z z 0 $ = o           . $ $ $ = = = ",
"z z z z z z z z c :     p %.%.%.%.%.%.%.&.~ : = = = = : k z z z z z :                 o = ; $       ",
"z z z z z z z z z :     p %.%.%.%.%.%.%.%.W : = = = = : k z z z z z :                 o = = $ .     ",
": : < k z z z z z :     p %.%.%.%.%.%.%.%. .J H m % o # 2 0 0 0 0 0 ; # # # # # # # # 3 F H d X     ",
"    . u c z z z z :     p %.%.%.%.%.%.%.%.%.%.&.[ @   . $ = = = = = = ; ; ; ; ; ; ; = i %.&.R X     ",
"    . u c z z z z :     p &.%.%.%.%.%.%.%.%.%.%.' @     $ ; = = = = = = = = = = = = = e $.%.U X     ",
"# # # 0 r r r r r ; # # 4 p p G %.%.o.Z Z Y $.%.{ q 2 2 ; = = = = = = = = = = = 6 m m K %.%.R % # # ",
"; ; = = = = = = = = ; ; #     8 %.%.( z z b #.%.o.v c z < = = = = = = = = = = = a %.%.%.%.%.~ : = = ",
"= = = = = = = = = = = ; #     9 %.&.) z z b $.&.O.v z z < = = = = = = = = = = = a %.%.%.%.%.W : = = ",
"= = ; i a a 1 = = = = ; #     5 Y Y C z z x S A m x z z < = = = = = = = = 6 a a H %.%.%.%.%.W : = = ",
"= = : ! %.$.i = = = = = #     : z z z z z u .   o k z z < = = = = = = = = m %.%.%.%.%.%.%.%.W : = = ",
"= = : ! %.$.e = = = = ; #     : z z z z z u .   o k c z < = = = = = = = = m &.%.%.%.%.%.%.&.~ : = = ",
"= = : W %.$.m e i 1 = ; #     : z z z z z u .   o r t t = $ $ = = = 6 i i M ) ( ` %.%.#.( ) L : = = ",
"= = : W %.%.$.$.$.a = ; #     : z z z z z u .     . . .     . $ ; = F %.%.Z z z V %.%.( c c k : = = ",
"; = : ~ %.%.%.%.%.a = = #     : c c z z z u .                 $ = = H &.&.Z z z V %.%.) c c k : = ; ",
"$ $ - W %.%.%.%.%.g < < $     = u u k z z j $ # # .           = < < N ` _ V z z V %.%.Q j u t = $ $ ",
". . X R %.%.%.%.%.V z z 2     . . . = z z z l l j o         . t z z c c c c z z V %.%.P o . . . . . ",
"    X R %.%.%.%.%.V z c 2           = z z z z z k o         . t c z z z z z z z V %.&.P .           ",
"    X P [ [ @.%.%.V z c 2           = z z z z z k o         . t c z z z z z z z B o.O.G .           ",
"      O @ @ P %.%.V z c 2           = z z z z z k o         . t c z z z z z z z c v v y .           ",
"          . P %.%.V z z 2           = z z z z z k o         . t c z z z z z z z z z c t .           ",
". . .     . G  . .V z c 2 . . .     $ l l l l l j o     . . . t z z z z z z z z z l z r .     . . . ",
"$ $ $ .     @ * * y z z k u j 2     . # # # # # # .   . $ $ = u z z z z z z z c t # # o     . $ $ $ ",
"; ; = .           0 z z z c c r                       . $ ; ; j z z z z z z z c 0           . = ; ; ",
"= = = .           0 z z z z z 0                       . $ = ; u z z z z z z z z 0           . = = = ",
"= = = $ $ $ .     # = $ = = = #     . $ $ $ $ $ $ $ $ $ = = = = = = = $ $ $ = = #           . = = = ",
"= = = ; ; = o                       o = ; ; ; ; ; ; ; ; = = = o                             . = = = ",
"= = = = = = o                       o = = = = = = = = = = = = o                             . = = = ",
"= = = = = = o                 > A A D H H H H H H H H H H H F &                             . = = = ",
"= = = = = = o                 9 %.%.%.%.%.%.%.%.%.%.%.%.%.%.%.7                             . = = = ",
"= = = = = = o                 8 %.%.%.%.%.%.%.%.%.%.%.%.%.%.%.7                             . = = = ",
"= = = = = = o           > s p m Z Z Z Z Z Y $.%.%.%.%.@.F m n , # # # # # # # # o           . = = = ",
"= = = = = = o           s &.&.^ z z z z z b #.%.%.%.%.X.6 = = = ; ; ; ; = = = ; #           . = = = ",
"; ; ; = = = o           p &.&.Y z z z z z b #.%.%.%.%.@.w = ; ; ; ; ; ; = = = = #           . = ; ; ",
"# # $ = = = o     $ : ; f ^ Y V z z v V V Z $.%. .G A h - # # # # # # # # : 0 0 ;           . # # # ",
"    . $ ; = o     0 c z z z z z z z B $.%.%.%.%.[ @                       2 c c 0                   ",
"    . $ ; = o     0 c z z z z z z z B %.%.%.%.&.[ @                       2 c c 0                   ",
"    . # $ $ .     0 c z z z z z z z b / ) Q P P D O           . o o $ = $ r z c r o o o o o .       ",
"                  0 c z z z z z z z z c c j o . .             $ = = t z z z z z t = = = = = $ .     ",
"                  r c z z z z z z z z z c j .                 $ = = t c z z z z t = = = = ; $       ",
". . . . . . . . . 2 j u u u u u u u u u j r .                 = < < u z z z z z t = = = = = = & * * ",
"= = = = = = = = = # . . . . . . . . . . . .                 . t z z z z z z z z t = = = = = 6 [  . .",
"= = = = = = = = = o                                         . t c z z z z z z z t = = = = = 6 +.%.%.",
"= = = = = = = = = o                                         . t c z z z z z z z t = = = = = 6 X.%.%."
};
