/* XPM */
static char *tree[] = {
/* columns rows colors chars-per-pixel */
"50 50 211 2 ",
"   c #1A1A17",
".  c #171E19",
"X  c #241E16",
"o  c #112A17",
"O  c #1C2916",
"+  c #162319",
"@  c #1A241B",
"#  c #142A1A",
"$  c #192B1E",
"%  c #0D3617",
"&  c #0B3C17",
"*  c #0F3418",
"=  c #0D3C19",
"-  c #15371B",
";  c #143C1B",
":  c #2D2415",
">  c #24261B",
",  c #282A19",
"<  c #372B14",
"1  c #392B14",
"2  c #283817",
"3  c #22331B",
"4  c #383518",
"5  c #1B2720",
"6  c #1C2C22",
"7  c #193223",
"8  c #133B20",
"9  c #1E3629",
"0  c #1F382A",
"q  c #223325",
"w  c #283524",
"e  c #233A27",
"r  c #2E3C24",
"t  c #213E2E",
"y  c #323C23",
"u  c #433114",
"i  c #463716",
"p  c #4E3914",
"a  c #523B13",
"s  c #0A4218",
"d  c #074E19",
"f  c #0B4C1C",
"g  c #14441A",
"h  c #18411B",
"j  c #134A1B",
"k  c #055218",
"l  c #0A521D",
"z  c #035D1A",
"x  c #095A1F",
"c  c #1A581D",
"v  c #25461C",
"b  c #29481B",
"n  c #03641C",
"m  c #0A671C",
"M  c #026A1D",
"N  c #0B6A1D",
"B  c #02711F",
"V  c #12731F",
"C  c #0E4F20",
"Z  c #154722",
"A  c #0F5522",
"S  c #0C5D22",
"D  c #185622",
"F  c #1B5A24",
"G  c #284827",
"H  c #23422E",
"J  c #364826",
"K  c #275527",
"L  c #375825",
"P  c #244531",
"I  c #264B33",
"U  c #2A4D31",
"Y  c #2B5535",
"T  c #2E5A35",
"R  c #2F5F39",
"E  c #395C34",
"W  c #076221",
"Q  c #056D22",
"!  c #0A6824",
"~  c #0B6A25",
"^  c #136C26",
"/  c #027521",
"(  c #0A7727",
")  c #017D23",
"_  c #177D21",
"`  c #1A7D22",
"'  c #256521",
"]  c #296B23",
"[  c #356425",
"{  c #2B7122",
"}  c #2B7F27",
"|  c #3A7A26",
" . c #2F6139",
".. c #32653B",
"X. c #3E673A",
"o. c #346B3D",
"O. c #396E3D",
"+. c #3C723F",
"@. c #594316",
"#. c #594419",
"$. c #58451C",
"%. c #624C1A",
"&. c #66511F",
"*. c #415C29",
"=. c #555223",
"-. c #6B5523",
";. c #6C5623",
":. c #755E28",
">. c #466629",
",. c #4B742A",
"<. c #58792A",
"1. c #426837",
"2. c #4B753C",
"3. c #587936",
"4. c #6E662B",
"5. c #756D2E",
"6. c #417740",
"7. c #467B41",
"8. c #497D41",
"9. c #008626",
"0. c #028A26",
"q. c #058629",
"w. c #0A852C",
"e. c #09892D",
"r. c #198E2B",
"t. c #01942A",
"y. c #0B932A",
"u. c #019B2C",
"i. c #19902A",
"p. c #169E2A",
"a. c #079630",
"s. c #079A30",
"d. c #28842A",
"f. c #358728",
"g. c #279329",
"h. c #33992D",
"j. c #39992D",
"k. c #01A42E",
"l. c #01A82F",
"z. c #1AA52C",
"x. c #06A232",
"c. c #08A232",
"v. c #04AC33",
"b. c #02B334",
"n. c #08B734",
"m. c #00BD36",
"M. c #21A92C",
"N. c #35AF2E",
"B. c #3AAD2C",
"V. c #2CB42E",
"C. c #39B62E",
"Z. c #2CBE31",
"A. c #468C2A",
"S. c #4B942B",
"D. c #47982B",
"F. c #519A2D",
"G. c #57823F",
"H. c #5B843D",
"J. c #62802D",
"K. c #638436",
"L. c #6B8B39",
"P. c #4DA42D",
"I. c #45BF2F",
"U. c #43BC33",
"Y. c #00C036",
"T. c #01C438",
"R. c #01CD3A",
"E. c #00D53D",
"W. c #01D83D",
"Q. c #0EDC3E",
"!. c #16DD3D",
"~. c #37C031",
"^. c #38C131",
"/. c #26E33D",
"(. c #2CE53D",
"). c #47C832",
"_. c #5BC733",
"`. c #51CF32",
"'. c #46D535",
"]. c #52D835",
"[. c #5BDF36",
"{. c #62D836",
"}. c #4FEF3C",
"|. c #5CE136",
" X c #5AE738",
".X c #51F33D",
"XX c #5DF83D",
"oX c #65EA39",
"OX c #65F73C",
"+X c #6AF53B",
"@X c #6DFC3C",
"#X c #72FF3D",
"$X c #4D8243",
"%X c #538544",
"&X c #568945",
"*X c #5A8D46",
"=X c #5E9146",
"-X c #639546",
";X c #669846",
":X c #6C9E46",
">X c #719D42",
",X c #6FA046",
"<X c #73A546",
"1X c #77A947",
"2X c #79AA46",
"3X c #83AB41",
"4X c #84B346",
"5X c #89B745",
"6X c #8CBA47",
"7X c #90BC46",
"8X c #94C247",
/* pixels */
"#X#X+Xp.9.9.9.9.9.9.9.9.^.#X#XI.z z M 9.9.9.9.9.9.n z n m.W.W.W.W.W.W.W.W.W.W.W.b.9.9.9.9.9.t.E.W.W.",
"#X#X+Xp.9.9.9.9.9.9.9.9.^.#X#XI.z z M 9.9.9.9.9.9.n z n m.W.W.W.W.W.W.W.W.W.W.W.b.9.9.9.9.9.t.E.W.W.",
"@X@XOXz.9.0.9.9.9.9.9.9.^.#X#X).m m B 9.9.9.9.9.9.n n n m.W.W.W.W.W.W.W.W.E.R.R.b.9.9.9.9.9.t.E.W.W.",
"!.!.!.R.T.T.u.9.9.9.9.9.^.#X#X+X[.|.).9.9.9.9.9.9.9.) 9.T.W.W.W.W.W.W.W.W.k./ / B n n n n n ) R.W.W.",
"W.W.W.W.W.W.u.9.9.9.9.9.^.#X#X#X#X#X].9.9.) W f s s f W b.W.W.W.W.W.W.W.W.u.z z z z z z z z / R.W.W.",
"W.W.W.W.W.W.u.9.9.9.9.9.^.#X#X#X#X#X].0.9./ f +     + f v.E.E.W.W.W.W.E.W.u.z z z z z z z z / R.W.E.",
"W.W.W.W.W.W.T.m.m.9.M M C.#X#X#X#X#X+X).B.f.K J J J J K e.v.Y.E.W.W.k.) 9.M z z z z z n / / ) 9.9.9.",
"W.W.W.W.W.W.W.W.W.0.z z B.#X#X#X#X#X@X_.A.[ >.K.L.L.K.>.F ~ x.R.W.W.0.z z z z z z z z M 9.9.) z z z ",
"W.W.W.W.W.W.W.W.W.0.z z B.#X#X#X@X+XoXP.L r 3.3X7X7X3X3.J Z e.m.R.E.0.z z z z z z z z M 9.9.) n z z ",
"9.9.t.T.W.W.W.W.W.0.z z B.#X#X#XoX_.D.,.E *.K.4X8X8X5XL.1.K F ~ q.u.9./ / / / / / / / i.).'.C.n z z ",
"z z n m.W.W.W.W.W.9.z z B.#X#X#X{.A.G L 1.G.>X5X8X8X6X<XH.1.G - f / 9.9.9.9.9.9.9.9.9.M.#X#X|.N z z ",
"z z n m.W.W.W.W.W.9.z z B.#X#X#X{.| 3 r 2.-X<X5X6X6X5X2X;X2.J + s Q 9.9.9.9.9.9.9.9.9.M.@X#X[.m z z ",
"/ / / k.v.v.v.v.v.9.B B i.B.B.`.{.| 3 J 3.:X1X2X4X4X4X2X:X3.J @ s Q 9.9.9.9.9.9.p.^.~.'.#X#X|.( B / ",
"9.9.9.9.9.9.9.9.9.9.9.9./ z k g._.| 3 J H.<X1X2X2X2X2X1X<XH.L $ s Q 9.9.9.9.9.9.V.#X#X#X#X#X Xy.9.9.",
"9.9.9.9.9.9.9.9.9.9.9.9./ z k ] A.[ G E G.:X<X<X1X1X<X<X:XH.E H Z A W / 9.9.9.9.V.#X#X#X#X#X Xy.9.9.",
"9.9.9.M.V.V.y.9.9.9.9.9./ z s h G K T X.%X-X:X<X1X1X<X:X-X%X1.T G - = W ) p.V.V.'.#X#X#X#X#X X0.9.9.",
"9.9.0. X#X@XM.9.9.9.9.9.M d = # 6 U o.7.%X*X;X,X<X<X,X;X=X%X7.O.Y q # f Q N.+X#X#X#X#X#X#X#X X0.9.9.",
"9.9.0. X#X@XM.9.9.9.9./ l % - 7 t E 2.$X&X*X=X-X;X;X-X-X*X&X$X7.E t 7 8 s f.{.#X#X#X#X#X#X#X X0.9.9.",
"9.9.0. X#X@X^.z.M.y.9.Q = + 6 9 U X.%X&X&X*X*X*X*X*X*X*X*X*X&X%X1.U 0 6 + ' U.}.XX#X#XOX.X.X'.0.9.9.",
"9.9.0. X#X#X@X@X@XV.9.Q = . 6 H T O.8.%X&X*X*X*X*X*X*X*X*X&X%X8.O.T H 6 @ D c.E.(.#X#X.XW.W.T.0.9.9.",
"9.9.0. X#X#X#X#X#XV.9.Q = . q Y ..o.+.7.%X*X*X*X*X*X*X*X*X%X8.+.O...Y q @ D x.E.(.#X#X.XW.W.R.0.9.9.",
") ) q. X#X#X#X#X#XZ.t.( = + e T o.o.o.+.$X%X&X&X&X&X&X&X&X$X6.o.o.o.T e @ D x.E.(.#X#X}.m.m.b.9.) ) ",
"n n N [.#X#X#X#X#X(.R.x.f . e T o.o.o.+.6.7.7.7.7.7.7.7.7.6.+.o.o.o.T e @ A x.E.(.#X#X`.M n n n n n ",
"z z N [.#X#X#X#X#X(.W.v.C . e T o.o.o.o.o.O.O.O.O.O.O.O.O.o.o.o.o.o.T e @ A x.E.(.#X#X`.n z z z z z ",
"z z m `.oXoX@X#X#X(.E.v.C . q U  ...o.o.o.o.o.o.o.o.o.o.o.o.o.o... .Y q @ A x.E./.OXOX).n z z z z z ",
"z z z N V V ].#X#X(.E.v.C . 6 H Y R o.o.o.o.o.o.o.o.o.o.o.o.o.o.R Y H 6 + A x.E.W.Q.Q.n.n z z z z z ",
"z z z z z n `.#X#X(.W.v.C . 5 9 P Y ............................Y P 0 6 + A x.E.W.W.W.b.n z z z z z ",
"n n n z z n ).+X+X(.W.v.A . 5 9 P I Y Y Y Y Y Y Y Y Y Y Y Y Y Y I P 0 6 + A x.E.E.R.E.v.n z z n n n ",
"9.9.) n z z V ` ` n.W.v.S + 5 9 H P P P P P P P P P P P P P P P P H 0 6 + A x.W.b./ / M z z n ) ) ) ",
"9.9.9.n z z z z z k.W.v.~ ; 7 9 9 t t t t t t t t t t t t t t t t 9 9 7 - ~ v.W.l.z z z z z n 9.9.9.",
"9.9.9.n z z z z z k.W.b.e.S Z 7 6 9 t t t t t t t t t t t t t t 9 6 6 Z S w.b.E.k.z z z z z n 9.9.9.",
"9.9.9.) / / n z z B ) / n f = + @ 6 0 t t t t t t t t t t t t t 6 @ + = f x / ) B z z z z z n 9.9.9.",
"9.9.9.9.9.9.M z z k k d s & % o # $ 6 q q w r y y y y r w q 7 6 $ # o % & s d k k z z z z z n 9.9.9.",
"9.9.9.9.9.9.M z z k d s s s & & * # + > > , 4 i i i i 4 , > > + # * & & s s s d k z z z z z n 9.9.9.",
"9.9.9.9.9.9.M z z k s s s s s c ] v @ X : < u p a a p u < : X   o & s s s s s s d z z z z z n 9.9.9.",
"9.9.9.9.9.9.M z z k s s s s & ' A.L , : 1 u p @.@.@.@.p u 1 : > O & s s s s s s d z z z z z n 9.9.9.",
"9.9.9.9.9.9.M z z k s s s s & ' A.L 4 < u p @.#.%.%.%.@.p u 1 : O ; s s s s s s d z z z z z n 9.9.9.",
"9.9.9.9.9.9.M z z k s s c { { } d.] b b 4 i #.&.;.;.-.$.i 4 4 2 ; f d d d d d l z z z z z z n 9.9.9.",
"9.9.9.9.9.9.M z z k s s { P.P.h.w.( ^ F 2 u $.;.:.:.;.$.u < 2 j l x x x x x x W n z z z z z n 9.9.9.",
"9.9.9.9.9.9.M z z d s & { P.P.h.e.e.w.^ v 4 =.4.5.5.4.=.4 3 j x x x x x x x x x n z z z z z n 9.9.9.",
"/ / / 9.9.9.M z z n W S ` h.h.g.e.e.e.d.] [ ,.<.J.,.>.*.v ; j f l l l l l S ~ ( / z z z z z n / / / ",
"z z n ) 9.9.M z z 0.s.e.e.e.e.e.e.e.r.D.D.S.S.F.S.c g g ; & & s s s s s s W e.a.0.z z z z z z z z z ",
"z z n ) 9.9.M z z t.x.s.y.e.e.e.e.e.i.P.P.P.P.P.D.j s s s s s s s s s s & ~ s.x.t.z z z z z z z z z ",
"z z n / / / n z z u.Y.v.s.e.e.e.e.e.r.j.j.j.f.f.| j s s s s s s s d l x x ( v.Y.k.n M M M M n z z z ",
"z z z z z z z z z k.W.Y.x.e.e.e.e.e.e.e.e.( f s s s s s s s s l x x ( w.e.s.m.E.b.9.9.9.9.9.) n z z ",
"z z z z z z z z z l.W.R.m.b.v.v.v.v.v.v.v.u.k d d d d d d d d n Q Q t.v.v.m.R.W.m.9.9.9.9.9.) z z z ",
"n n n n n n n n n u.Y.m.m.m.m.m.m.m.m.m.Y.v.n z z z z z z z n 9.t.t.m.W.W.W.W.W.m.9.9.9.9.9.q._ ` ` ",
"9.9.9.9.9.9.9.9.9.B n n n n n n n n n n n n z z z z z z z z n b.E.E.W.W.W.W.W.W.m.9.9.9.9.9.p.oX+X+X",
"9.9.9.9.9.9.9.9.9.M z z z z z z z z z z z z z z z z z z z z n b.W.W.W.W.W.W.W.W.b.9.9.9.9.9.p.+X#X#X",
"9.9.9.9.9.9.9.9.9.M z z z z z z z z z z z z z z z z z z z z n b.W.W.W.W.W.W.W.W.b.9.9.9.9.9.p.+X#X#X"
};
